<svg xmlns="http://www.w3.org/2000/svg" viewBox="0 0 761.69 363.64"><defs><style>.cls-1{fill:none;stroke:#000;stroke-miterlimit:10;}.cls-2{fill:#f300e2;}.cls-3{fill:#f000fb;}</style></defs><g id="Outline"><path class="cls-1" d="M444,409.64" transform="translate(-264.93 -372.67)"/><line class="cls-1" x1="504.57" y1="297.83" x2="524.57" y2="317.83"/><path class="cls-1" d="M951.24,658.78l33.26,1.72,13-11c4.29-22.76,6.64-41.94,8-56,3-30.65,3-54.43,3-84,0-20-.44-32.85-1-49-1.32-37.82-2-56.73-5-57-4.62-.42-12.11,43-14,54-8.74,50.71-4.49,57-11,97-3.35,20.54-15.18,67.29-26.26,104.28-1.21,4-15.46,46.87-18.74,50.72-3.54,4.16-13.35,9.26-24.88,13.86a223.6,223.6,0,0,1-35.26,10.85c-7,1.44-12.71,2-15.86,1.29-11.18-2.56-21.78-10.71-43-27a396.61,396.61,0,0,1-56-51c-14.89-16.45-14.26-18.45-42-54-20.79-26.64-20.53-24.74-48-59-42.53-53-42.8-57.18-60-73-32.07-29.5-56.49-38.45-64-41-16-5.45-35.44-12-57-5-21.89,7.13-33.79,24.3-43,38-26.45,39.32-27.74,81-28,95-1.45,78.56,44.86,133.64,60,150a219.5,219.5,0,0,0,30.07,27H437.5c-19.61-8-32.56-17.93-41-26-9.39-9-10.33-12.86-19-19-2.55-1.8-28.76-19.92-47-11-17.08,8.35-11.49,32.73-28,41-11.22,5.62-25.59.28-37.07-6.06l.07-205.94a59,59,0,0,1,5-27c5.14-11.38,18.31-30.35,33-29,12.36,1.14,20.69,16.46,29,30,6.36,10.35,8.26,16,19,34,9.24,15.51,11,16.67,13,17,9,1.48,15.53-15,41-49,5-6.62,11.31-14.42,24-30,28.31-34.76,33-38.07,36-40,21.3-13.55,44.92-11.65,53-11,17.7,1.42,25,6.89,68,30,73,39.2,59.07,27.3,84,43,20.69,13,28.54,20.16,43,20,16.35-.18,26.19-9.51,48-25,20.74-14.73,43.4-26.56,65-40,43.34-27,65.36-40.55,82-46,13.85-4.54,31.57-6.69,67-11,14.74-1.79,22.52-2.32,30,2,15.52,9,18.06,32,19,46,4.55,68-.91,216.7-11,233-13,21-35,26-35,26v46l-82.41.46" transform="translate(-264.93 -372.67)"/></g><g id="Inside"><path class="cls-2" d="M724.5,730.5c38.64-30.36,40.07-47.65,38-56-1.18-4.77-3.27-5.64-20-25-2.54-2.94-11.36-13.63-29-35-7.86-9.52-5.54-6.79-27-33-19.75-24.11-19.64-23.89-22-27-20.9-27.55-24-32-24-32-6-8.66-9.49-14.16-17-18-6.17-3.15-10.58-2.9-18-4-11.36-1.68-15.27-4.39-33-11a476.87,476.87,0,0,0-48-15c-22.57-5.62-33.86-8.43-44-6-20.73,5-32.46,24-38,33-32,52-24.23,139.93,26.56,189a134,134,0,0,0,30.44,22Z" transform="translate(-264.93 -372.67)"/><polygon class="cls-3" points="720 125.83 726.57 189.83 726.57 241.77 723.29 276.69 720 286.21 689.57 285.83 708.07 213.2 720 125.83"/></g></svg>